<svg id="svg" version="1.1" xmlns="http://www.w3.org/2000/svg" xmlns:xlink="http://www.w3.org/1999/xlink" width="400" height="400.61538461538464" viewBox="0, 0, 400,400.61538461538464"><g id="svgg"><path id="path0" d="M35.553 70.946 C 25.576 74.557,24.844 88.146,34.371 92.889 C 36.165 93.783,36.521 93.804,52.983 94.000 L 69.767 94.200 74.212 106.000 C 76.657 112.490,90.957 150.380,105.990 190.200 C 121.022 230.020,133.399 262.890,133.493 263.244 C 133.612 263.691,132.827 264.416,130.932 265.611 C 101.758 284.016,114.931 329.800,149.400 329.800 C 171.802 329.800,187.779 310.041,183.200 288.000 C 182.766 285.910,182.408 284.155,182.405 284.100 C 182.394 283.880,253.083 284.016,253.303 284.236 C 253.433 284.366,253.293 285.168,252.993 286.019 C 246.729 303.773,261.113 326.615,280.463 329.640 C 323.970 336.444,336.956 273.091,294.514 261.094 L 291.400 260.214 224.400 260.007 L 157.400 259.800 154.302 251.600 C 152.597 247.090,151.202 243.267,151.202 243.104 C 151.201 242.941,186.088 242.761,228.728 242.704 L 306.257 242.600 308.617 241.393 C 311.119 240.113,313.684 237.262,314.370 235.000 C 314.570 234.340,315.843 230.200,317.200 225.800 C 318.557 221.400,320.358 215.550,321.203 212.800 C 322.048 210.050,323.581 205.100,324.610 201.800 C 325.638 198.500,326.716 194.990,327.004 194.000 C 327.582 192.011,329.746 184.987,332.610 175.800 C 333.638 172.500,334.716 168.990,335.004 168.000 C 335.812 165.221,338.514 156.440,340.603 149.800 C 341.641 146.500,342.724 142.990,343.009 142.000 C 343.294 141.010,344.279 137.770,345.199 134.800 C 346.118 131.830,347.053 128.778,347.276 128.018 C 348.759 122.979,345.845 116.773,340.840 114.307 L 339.000 113.400 220.528 113.298 L 102.057 113.196 100.814 109.898 C 100.130 108.084,99.287 105.880,98.940 105.000 C 98.259 103.272,98.090 102.828,95.591 96.200 C 94.678 93.780,93.692 91.170,93.400 90.400 C 93.108 89.630,92.031 86.750,91.007 84.000 C 87.800 75.391,86.481 73.320,83.027 71.471 C 80.995 70.383,38.409 69.912,35.553 70.946 M177.676 138.400 C 177.828 139.170,178.246 143.940,178.605 149.000 C 178.965 154.060,179.514 161.260,179.827 165.000 C 180.140 168.740,180.396 172.295,180.398 172.900 L 180.400 174.000 152.810 174.000 L 125.221 174.000 124.625 172.848 C 124.297 172.215,123.779 171.000,123.472 170.148 C 122.512 167.479,119.977 160.704,119.002 158.200 C 118.487 156.880,117.227 153.550,116.200 150.800 C 115.173 148.050,114.147 145.350,113.919 144.800 C 113.692 144.250,113.360 143.350,113.183 142.800 C 113.005 142.250,112.492 140.828,112.043 139.641 C 111.593 138.453,111.321 137.327,111.438 137.139 C 111.555 136.950,126.444 136.841,144.525 136.898 L 177.400 137.000 177.676 138.400 M245.952 137.162 C 246.365 137.423,246.439 138.050,246.248 139.656 C 246.107 140.835,245.723 145.490,245.393 150.000 C 244.123 167.391,243.629 173.230,243.395 173.608 C 243.241 173.857,233.863 174.000,217.636 174.000 L 192.119 174.000 191.849 170.700 C 191.700 168.885,191.302 163.800,190.964 159.400 C 189.405 139.093,189.314 137.404,189.760 137.106 C 190.388 136.686,245.287 136.741,245.952 137.162 M319.445 137.374 C 319.566 137.689,319.006 140.074,318.201 142.674 C 315.091 152.712,313.507 157.869,313.004 159.600 C 311.707 164.057,308.810 173.260,308.593 173.611 C 308.441 173.857,298.551 174.000,281.776 174.000 L 255.200 174.000 255.199 172.900 C 255.198 172.295,255.373 169.910,255.586 167.600 C 255.800 165.290,256.256 159.620,256.600 155.000 C 257.494 143.008,257.996 137.530,258.237 137.140 C 258.640 136.487,319.194 136.719,319.445 137.374 M181.097 186.100 C 181.314 186.375,181.608 188.310,181.751 190.400 C 181.893 192.490,182.447 199.686,182.982 206.390 C 183.729 215.742,183.844 218.651,183.478 218.884 C 182.598 219.443,142.552 219.265,142.084 218.700 C 141.698 218.233,140.016 214.044,137.788 208.000 C 137.261 206.570,136.276 203.960,135.599 202.200 C 134.922 200.440,133.997 197.952,133.543 196.672 C 133.090 195.392,132.031 192.603,131.191 190.475 C 130.090 187.689,129.780 186.466,130.080 186.103 C 130.689 185.370,180.518 185.367,181.097 186.100 M242.110 190.000 C 242.019 194.205,241.136 206.516,240.359 214.393 C 240.127 216.748,239.739 218.718,239.473 218.887 C 238.845 219.286,196.740 219.277,196.111 218.877 C 195.187 218.290,192.780 186.511,193.619 185.978 C 193.962 185.760,204.032 185.648,218.200 185.704 L 242.200 185.800 242.110 190.000 M304.319 185.941 C 304.806 186.250,303.153 191.974,295.625 216.058 C 295.167 217.521,294.510 218.826,294.164 218.958 C 293.231 219.317,252.682 219.240,252.114 218.879 C 251.733 218.637,251.752 217.052,252.201 211.585 C 252.516 207.743,253.050 201.228,253.387 197.107 C 253.724 192.986,254.000 188.927,254.000 188.087 C 254.000 187.247,254.216 186.344,254.480 186.080 C 255.044 185.516,303.437 185.382,304.319 185.941 M153.782 284.833 C 160.990 288.022,162.730 297.608,157.120 303.218 C 150.253 310.085,138.408 305.010,138.408 295.200 C 138.408 287.142,146.566 281.641,153.782 284.833 M290.535 284.772 C 299.833 288.758,299.552 302.065,290.092 305.737 C 283.563 308.272,276.065 303.465,275.322 296.268 C 274.474 288.054,283.059 281.567,290.535 284.772 " stroke="none" fill="#090909" fill-rule="evenodd"></path><path id="path1" d="M0.000 200.200 L 0.000 400.400 200.000 400.400 L 400.000 400.400 400.000 200.200 L 400.000 0.000 200.000 0.000 L 0.000 0.000 0.000 200.200 M149.600 49.549 C 149.780 54.729,149.730 55.346,149.093 55.791 C 148.461 56.233,148.576 56.358,150.167 56.966 C 157.382 59.721,157.068 68.738,149.624 72.588 C 148.331 73.256,148.123 74.104,148.360 77.730 C 148.445 79.015,148.319 79.296,147.575 79.491 C 146.725 79.713,146.738 79.748,147.887 80.361 C 153.421 83.312,155.392 88.162,152.706 92.216 C 151.429 94.144,151.410 94.242,151.259 99.735 C 151.120 104.807,151.039 105.317,150.342 105.499 C 149.752 105.653,150.017 105.903,151.497 106.589 C 153.741 107.629,155.668 109.434,156.387 111.170 L 156.897 112.400 161.899 112.400 L 166.902 112.400 165.341 110.700 C 162.285 107.372,161.724 105.936,159.989 97.000 C 159.519 94.580,158.843 91.790,158.487 90.800 C 157.961 89.337,157.838 87.240,157.833 79.600 L 157.826 70.200 159.032 66.790 C 163.231 54.914,172.844 50.508,190.630 52.305 C 197.753 53.025,198.000 53.148,198.000 55.980 C 198.000 61.941,198.342 63.160,200.435 64.663 C 204.040 67.253,205.061 71.905,202.996 76.340 C 201.250 80.091,201.531 81.438,204.641 84.230 C 208.092 87.327,208.000 87.336,208.000 83.878 C 208.000 69.766,214.540 63.201,228.600 63.201 C 239.944 63.201,246.147 67.149,248.392 75.800 C 248.688 76.937,249.640 78.749,250.600 80.000 C 251.528 81.210,252.695 83.010,253.193 84.000 C 253.691 84.990,254.171 85.880,254.260 85.978 C 254.349 86.075,254.981 85.478,255.663 84.650 C 257.768 82.097,260.213 80.915,265.665 79.817 C 266.556 79.637,268.800 76.706,268.800 75.722 C 268.800 75.625,267.675 75.571,266.300 75.604 C 264.925 75.636,263.570 75.649,263.289 75.632 C 262.894 75.607,262.803 74.304,262.889 69.900 L 263.000 64.200 265.600 63.743 C 269.261 63.100,275.992 63.114,280.000 63.773 C 288.255 65.131,291.761 68.061,292.878 74.536 C 293.250 76.696,293.559 77.272,295.379 79.200 C 297.667 81.623,299.247 84.150,300.008 86.600 C 301.340 90.888,301.523 88.522,301.565 66.491 L 301.600 47.982 308.700 48.091 L 315.800 48.200 316.042 53.600 C 316.317 59.753,316.222 59.200,316.999 59.200 C 318.072 59.200,320.682 61.957,321.641 64.103 C 322.558 66.157,322.583 66.537,322.830 82.600 C 323.100 100.135,323.006 99.287,325.406 105.962 C 326.119 107.945,326.425 109.498,326.332 110.662 L 326.194 112.400 330.597 112.402 C 344.751 112.410,350.677 118.999,347.007 130.649 C 346.461 132.382,345.849 134.340,345.646 135.000 C 344.658 138.219,342.289 145.959,340.810 150.800 C 339.903 153.770,338.927 156.920,338.642 157.800 C 338.356 158.680,337.932 160.030,337.700 160.800 C 337.170 162.556,334.952 169.798,332.860 176.600 C 331.980 179.460,330.686 183.690,329.982 186.000 C 329.279 188.310,328.199 191.820,327.581 193.800 C 326.232 198.125,323.597 206.702,321.928 212.200 C 321.260 214.400,320.474 216.920,320.181 217.800 C 319.561 219.661,318.071 224.513,316.804 228.800 C 314.165 237.727,312.758 239.966,308.451 242.088 L 306.600 243.000 229.157 243.200 L 151.713 243.400 153.493 248.200 C 154.472 250.840,155.859 254.440,156.575 256.200 L 157.877 259.400 225.039 259.614 C 296.664 259.841,293.734 259.762,297.800 261.589 C 298.240 261.787,299.484 262.323,300.565 262.780 C 318.042 270.181,326.210 292.148,318.123 310.000 C 305.057 338.844,263.403 336.663,253.177 306.598 C 251.189 300.754,250.792 290.430,252.392 286.221 C 252.616 285.631,252.800 284.980,252.800 284.774 C 252.800 284.545,239.271 284.400,217.878 284.400 L 182.955 284.400 183.696 287.900 C 188.347 309.872,171.802 330.400,149.443 330.400 C 115.808 330.400,101.423 286.742,128.498 266.835 C 130.314 265.500,132.102 264.180,132.471 263.904 C 133.082 263.446,132.458 261.590,125.577 243.400 C 121.415 232.400,107.072 194.420,93.702 159.000 L 69.394 94.600 52.797 94.387 C 43.669 94.269,35.750 94.015,35.200 93.820 C 25.072 90.244,24.432 75.609,34.200 70.960 L 36.200 70.008 58.489 70.004 L 80.778 70.000 82.928 71.018 C 86.022 72.483,90.000 77.515,90.000 79.964 C 90.000 80.189,90.252 80.964,90.560 81.686 C 90.867 82.409,91.432 83.810,91.814 84.800 C 92.196 85.790,92.732 87.140,93.005 87.800 C 93.278 88.460,94.256 91.070,95.178 93.600 C 96.101 96.130,97.133 98.920,97.473 99.800 C 97.812 100.680,98.364 102.120,98.699 103.000 C 99.034 103.880,99.554 105.167,99.854 105.860 C 100.154 106.554,100.400 107.398,100.400 107.737 C 100.400 108.076,100.555 108.449,100.745 108.566 C 100.935 108.683,101.316 109.585,101.591 110.569 C 102.191 112.711,101.866 112.629,109.162 112.481 L 115.014 112.362 114.647 109.022 C 114.287 105.745,114.256 105.674,113.040 105.326 L 111.800 104.970 111.672 94.785 C 111.602 89.183,111.669 75.373,111.820 64.096 L 112.095 43.592 130.748 43.696 L 149.400 43.800 149.600 49.549 M301.672 104.756 C 301.414 104.915,301.129 105.575,301.040 106.223 C 300.886 107.338,300.039 110.175,299.405 111.700 C 299.141 112.335,299.434 112.400,302.557 112.400 C 304.451 112.400,305.995 112.355,305.989 112.300 C 305.873 111.259,302.026 104.537,301.672 104.756 M209.776 108.306 C 209.543 108.468,208.881 109.455,208.304 110.500 L 207.256 112.400 211.290 112.400 L 215.324 112.400 214.574 111.500 C 211.771 108.135,210.879 107.541,209.776 108.306 M252.813 110.989 L 251.124 112.400 254.854 112.400 L 258.585 112.400 257.392 111.241 C 255.516 109.416,254.747 109.373,252.813 110.989 M112.000 137.706 C 112.000 137.984,112.373 139.199,112.830 140.406 C 113.286 141.613,113.805 143.050,113.983 143.600 C 114.296 144.570,114.727 145.644,115.856 148.260 C 116.155 148.954,116.400 149.773,116.400 150.080 C 116.400 150.388,116.556 150.811,116.748 151.020 C 116.939 151.229,117.465 152.480,117.916 153.800 C 118.368 155.120,119.125 157.190,119.599 158.400 C 120.072 159.610,120.613 161.050,120.800 161.600 C 120.987 162.150,121.521 163.590,121.987 164.800 C 122.453 166.010,123.178 167.961,123.599 169.136 C 124.020 170.310,124.597 171.797,124.881 172.438 L 125.398 173.605 152.599 173.503 L 179.800 173.400 179.685 170.800 C 179.571 168.244,178.979 160.495,177.798 146.129 C 177.469 142.130,177.200 138.485,177.200 138.029 L 177.200 137.200 144.600 137.200 C 118.593 137.200,112.000 137.302,112.000 137.706 M189.874 137.459 C 189.731 137.602,189.704 138.097,189.813 138.559 C 190.007 139.384,190.829 150.127,191.638 162.400 C 191.862 165.810,192.171 169.680,192.324 171.000 L 192.601 173.400 217.577 173.503 C 231.314 173.560,242.689 173.470,242.854 173.303 C 243.019 173.136,243.346 170.300,243.580 167.000 C 243.814 163.700,244.177 159.020,244.387 156.600 C 244.597 154.180,244.959 149.680,245.191 146.600 C 245.424 143.520,245.718 140.145,245.845 139.100 L 246.075 137.200 218.104 137.200 C 202.720 137.200,190.017 137.317,189.874 137.459 M258.611 137.583 C 258.481 137.793,258.204 140.358,257.995 143.283 C 257.787 146.207,257.433 150.850,257.210 153.600 C 256.297 164.851,255.919 169.893,255.861 171.600 L 255.800 173.400 281.777 173.503 C 296.064 173.560,307.898 173.462,308.073 173.287 C 308.361 172.999,309.606 169.206,310.990 164.400 C 311.276 163.410,312.358 159.900,313.395 156.600 C 315.785 148.998,319.200 137.717,319.200 137.424 C 319.200 137.018,258.862 137.176,258.611 137.583 M130.400 186.781 C 130.400 187.155,130.775 188.154,131.856 190.660 C 132.155 191.354,132.400 192.121,132.400 192.366 C 132.400 192.611,132.578 193.123,132.796 193.505 C 133.013 193.887,134.286 197.170,135.625 200.800 C 136.964 204.430,138.336 208.120,138.675 209.000 C 139.013 209.880,139.561 211.320,139.893 212.200 C 140.225 213.080,140.646 214.160,140.830 214.600 C 141.014 215.040,141.433 216.075,141.762 216.900 L 142.359 218.400 162.838 218.400 L 183.317 218.400 183.053 213.700 C 182.908 211.115,182.619 207.290,182.411 205.200 C 182.204 203.110,181.837 198.520,181.596 195.000 C 181.354 191.480,181.062 188.105,180.947 187.500 L 180.736 186.400 155.568 186.400 C 139.885 186.400,130.400 186.544,130.400 186.781 M193.819 189.900 C 193.942 191.825,194.204 195.200,194.402 197.400 C 194.600 199.600,194.863 203.020,194.987 205.000 C 195.111 206.980,195.421 210.805,195.676 213.500 L 196.140 218.400 217.870 218.400 C 229.822 218.400,239.605 218.355,239.612 218.300 C 239.626 218.172,240.586 205.724,241.376 195.400 C 241.713 191.000,241.991 187.175,241.994 186.900 C 241.999 186.505,236.896 186.400,217.798 186.400 L 193.595 186.400 193.819 189.900 M254.620 186.900 C 254.535 187.175,254.362 189.110,254.237 191.200 C 254.112 193.290,253.725 198.600,253.378 203.000 C 253.031 207.400,252.648 212.667,252.526 214.704 L 252.304 218.407 273.432 218.304 L 294.560 218.200 295.703 214.400 C 296.331 212.310,297.088 209.790,297.386 208.800 C 298.220 206.024,302.257 192.914,303.175 190.000 C 303.625 188.570,303.995 187.175,303.997 186.900 C 304.001 186.167,254.847 186.167,254.620 186.900 M145.601 285.105 C 139.393 287.504,136.883 295.467,140.600 300.967 C 146.663 309.938,160.000 305.809,160.000 294.962 C 160.000 287.697,152.384 282.483,145.601 285.105 M283.597 284.750 C 271.735 288.642,274.019 305.765,286.400 305.759 C 297.577 305.754,301.063 290.632,291.063 285.530 C 289.288 284.624,285.262 284.204,283.597 284.750 " stroke="none" fill="#f3f3f3" fill-rule="evenodd"></path><path id="path2" d="M301.686 72.923 L 301.800 97.864 303.013 99.826 C 305.250 103.443,312.492 105.447,318.948 104.236 L 320.400 103.964 320.400 98.782 L 320.400 93.600 319.062 93.600 C 316.099 93.600,316.224 94.562,316.000 70.058 L 315.800 48.200 308.686 48.091 L 301.571 47.981 301.686 72.923 M182.400 51.715 C 182.290 51.825,180.400 52.113,178.200 52.356 C 164.476 53.873,158.199 61.300,157.706 76.600 C 156.925 100.892,168.998 108.779,198.400 103.184 C 201.830 102.531,201.587 103.742,201.594 87.300 L 201.600 72.800 191.057 72.800 L 180.514 72.800 180.257 75.259 C 180.116 76.611,180.000 79.311,180.000 81.259 L 180.000 84.800 181.300 84.854 C 184.199 84.973,187.017 85.115,187.300 85.156 C 187.465 85.180,187.600 86.820,187.600 88.800 L 187.600 92.400 184.500 92.394 C 176.468 92.379,174.028 89.258,174.028 79.000 C 174.028 71.581,175.526 67.507,178.899 65.752 C 181.719 64.285,190.719 64.407,195.997 65.983 C 196.766 66.212,197.508 66.400,197.647 66.400 C 198.216 66.400,198.404 63.519,198.150 58.714 L 197.882 53.623 196.633 53.211 C 195.946 52.984,193.588 52.624,191.392 52.411 C 189.196 52.198,186.320 51.909,185.000 51.770 C 183.680 51.630,182.510 51.605,182.400 51.715 M221.795 63.775 C 212.020 65.724,207.460 73.077,208.136 85.800 C 208.801 98.290,213.267 103.329,224.694 104.481 C 242.190 106.245,249.830 99.211,249.082 82.029 C 248.671 72.577,245.539 67.125,239.200 64.826 C 234.851 63.249,226.855 62.766,221.795 63.775 M265.600 63.743 L 263.000 64.200 262.889 69.900 C 262.803 74.309,262.894 75.604,263.289 75.619 C 263.570 75.629,266.542 75.621,269.894 75.601 C 276.503 75.562,277.238 75.741,278.212 77.624 C 279.137 79.412,279.007 79.452,271.307 79.731 C 257.592 80.227,253.800 82.978,253.800 92.429 C 253.800 100.932,257.794 104.396,267.600 104.396 C 272.850 104.396,274.265 104.093,276.928 102.405 C 279.252 100.931,279.044 100.916,279.600 102.600 L 280.062 104.000 286.431 104.000 L 292.800 104.000 292.898 91.100 C 293.046 71.560,292.918 70.711,289.322 67.397 C 285.588 63.954,274.296 62.215,265.600 63.743 M230.883 74.016 C 235.505 75.300,236.363 91.255,231.938 93.636 C 230.700 94.302,226.448 94.313,225.262 93.653 C 222.009 91.844,221.543 77.796,224.646 75.079 C 226.210 73.710,228.422 73.333,230.883 74.016 M278.800 90.184 C 278.800 92.695,276.412 93.993,271.789 93.998 C 268.899 94.000,267.600 93.269,267.600 91.639 C 267.600 89.421,268.865 88.939,274.900 88.854 L 278.800 88.800 278.800 90.184 " stroke="none" fill="#37cbfa" fill-rule="evenodd"></path><path id="path3" d="M112.000 74.396 L 112.000 105.200 131.400 105.200 L 150.800 105.200 150.800 99.406 L 150.800 93.611 138.300 93.506 L 125.800 93.400 125.800 86.400 L 125.800 79.400 136.911 79.294 L 148.022 79.187 147.911 73.694 L 147.800 68.200 136.700 68.094 L 125.600 67.987 125.600 61.800 L 125.600 55.612 137.500 55.506 L 149.400 55.400 149.400 49.600 L 149.400 43.800 130.700 43.696 L 112.000 43.592 112.000 74.396 " stroke="none" fill="#fb744c" fill-rule="evenodd"></path><path id="path4" d="M149.400 55.200 C 149.244 55.452,144.796 55.600,137.376 55.600 L 125.600 55.600 125.600 61.794 L 125.600 67.987 136.700 68.094 L 147.800 68.200 148.023 72.200 C 148.145 74.400,148.280 75.530,148.323 74.710 C 148.386 73.491,148.622 73.106,149.624 72.588 C 157.055 68.745,157.382 59.722,150.190 56.975 L 148.431 56.303 149.315 55.565 C 149.802 55.159,150.076 54.821,149.924 54.813 C 149.772 54.806,149.536 54.980,149.400 55.200 M316.046 74.646 C 315.994 93.737,315.972 93.600,319.029 93.600 L 320.400 93.600 320.400 98.782 L 320.400 103.964 318.948 104.236 C 315.591 104.866,308.882 104.169,306.481 102.940 C 302.587 100.949,301.866 99.288,301.575 91.641 C 301.445 88.209,301.307 86.201,301.269 87.180 C 301.191 89.204,300.742 88.998,300.004 86.600 C 298.838 82.814,293.748 76.338,293.143 77.872 C 292.985 78.272,292.844 84.315,292.828 91.300 L 292.800 104.000 286.431 104.000 L 280.062 104.000 279.600 102.600 C 279.044 100.916,279.252 100.931,276.928 102.405 C 272.278 105.354,262.614 105.294,258.138 102.289 C 254.385 99.770,252.192 91.068,254.346 87.249 C 254.677 86.662,254.734 86.203,254.495 86.049 C 254.282 85.912,253.702 84.990,253.206 84.000 C 252.469 82.530,251.159 80.657,249.232 78.319 C 249.104 78.164,249.061 80.103,249.135 82.627 C 249.626 99.368,241.960 106.222,224.694 104.481 C 214.398 103.443,210.012 99.419,208.423 89.553 C 208.203 88.182,207.858 86.957,207.657 86.830 C 202.492 83.574,201.094 80.427,202.996 76.340 C 205.068 71.888,204.042 67.254,200.404 64.641 L 198.463 63.246 198.196 64.823 C 197.899 66.582,197.937 66.562,195.997 65.983 C 190.918 64.466,181.730 64.281,179.090 65.641 C 175.544 67.469,174.028 71.470,174.028 79.000 C 174.028 89.258,176.468 92.379,184.500 92.394 L 187.600 92.400 187.600 88.800 C 187.600 86.820,187.465 85.180,187.300 85.156 C 187.017 85.115,184.199 84.973,181.300 84.854 L 180.000 84.800 180.000 81.259 C 180.000 79.311,180.116 76.611,180.257 75.259 L 180.514 72.800 191.057 72.800 L 201.600 72.800 201.594 87.300 C 201.587 103.742,201.830 102.531,198.400 103.184 C 175.408 107.559,162.594 103.264,158.772 89.901 C 158.379 88.525,158.044 87.799,158.028 88.286 C 158.013 88.773,158.255 89.943,158.567 90.886 C 158.879 91.829,159.519 94.580,159.989 97.000 C 161.724 105.936,162.285 107.372,165.341 110.700 L 166.902 112.400 161.899 112.400 L 156.897 112.400 156.387 111.170 C 155.668 109.434,153.741 107.629,151.497 106.589 C 150.017 105.903,149.752 105.653,150.342 105.499 C 151.039 105.317,151.120 104.807,151.259 99.735 C 151.410 94.242,151.429 94.144,152.706 92.216 C 155.392 88.162,153.421 83.312,147.887 80.361 C 146.763 79.761,146.742 79.709,147.545 79.499 C 148.186 79.331,148.385 78.991,148.340 78.137 L 148.280 77.000 148.114 78.094 L 147.948 79.187 136.874 79.294 L 125.800 79.400 125.800 86.400 L 125.800 93.400 138.300 93.506 L 150.800 93.611 150.800 99.406 L 150.800 105.200 131.900 105.246 C 121.505 105.272,113.287 105.370,113.637 105.464 C 114.116 105.592,114.367 106.471,114.644 108.998 L 115.014 112.362 109.162 112.481 C 101.866 112.629,102.191 112.711,101.591 110.569 C 101.316 109.585,100.935 108.683,100.745 108.566 C 100.555 108.449,100.400 108.076,100.400 107.737 C 100.400 107.398,100.154 106.554,99.854 105.860 C 99.344 104.683,98.837 103.393,97.428 99.700 C 97.113 98.875,96.101 96.130,95.178 93.600 C 94.256 91.070,93.278 88.460,93.005 87.800 C 92.732 87.140,92.196 85.790,91.814 84.800 C 91.432 83.810,90.867 82.409,90.560 81.686 C 90.252 80.964,90.000 80.189,90.000 79.964 C 90.000 77.515,86.022 72.483,82.928 71.018 L 80.778 70.000 58.489 70.004 L 36.200 70.008 34.200 70.960 C 24.432 75.609,25.072 90.244,35.200 93.820 C 35.750 94.015,43.669 94.269,52.797 94.387 L 69.394 94.600 93.702 159.000 C 107.072 194.420,121.415 232.400,125.577 243.400 C 132.458 261.590,133.082 263.446,132.471 263.904 C 132.102 264.180,130.314 265.500,128.498 266.835 C 107.326 282.402,110.705 316.119,134.549 327.210 C 160.767 339.405,189.699 316.263,183.696 287.900 L 182.955 284.400 217.878 284.400 C 239.271 284.400,252.800 284.545,252.800 284.774 C 252.800 284.980,252.616 285.631,252.392 286.221 C 250.792 290.430,251.189 300.754,253.177 306.598 C 263.403 336.663,305.057 338.844,318.123 310.000 C 326.210 292.148,318.042 270.181,300.565 262.780 C 299.484 262.323,298.240 261.787,297.800 261.589 C 293.734 259.762,296.664 259.841,225.039 259.614 L 157.877 259.400 156.575 256.200 C 155.859 254.440,154.472 250.840,153.493 248.200 L 151.713 243.400 229.157 243.200 L 306.600 243.000 308.451 242.088 C 312.758 239.966,314.165 237.727,316.804 228.800 C 318.071 224.513,319.561 219.661,320.181 217.800 C 320.474 216.920,321.260 214.400,321.928 212.200 C 323.597 206.702,326.232 198.125,327.581 193.800 C 328.199 191.820,329.279 188.310,329.982 186.000 C 330.686 183.690,331.980 179.460,332.860 176.600 C 334.952 169.798,337.170 162.556,337.700 160.800 C 337.932 160.030,338.356 158.680,338.642 157.800 C 338.927 156.920,339.903 153.770,340.810 150.800 C 342.289 145.959,344.658 138.219,345.646 135.000 C 345.849 134.340,346.461 132.382,347.007 130.649 C 350.677 118.999,344.751 112.410,330.597 112.402 L 326.194 112.400 326.332 110.662 C 326.425 109.498,326.119 107.945,325.406 105.962 C 323.006 99.287,323.100 100.135,322.830 82.600 C 322.583 66.537,322.558 66.157,321.641 64.103 C 320.694 61.983,318.075 59.200,317.028 59.200 C 316.715 59.200,316.376 58.885,316.276 58.500 C 316.175 58.115,316.072 65.381,316.046 74.646 M111.786 84.400 C 111.786 95.730,111.837 100.365,111.900 94.700 C 111.962 89.035,111.962 79.765,111.900 74.100 C 111.837 68.435,111.786 73.070,111.786 84.400 M83.027 71.471 C 86.481 73.320,87.800 75.391,91.007 84.000 C 92.031 86.750,93.108 89.630,93.400 90.400 C 93.692 91.170,94.678 93.780,95.591 96.200 C 98.090 102.828,98.259 103.272,98.940 105.000 C 99.287 105.880,100.130 108.084,100.814 109.898 L 102.057 113.196 220.528 113.298 L 339.000 113.400 340.840 114.307 C 345.845 116.773,348.759 122.979,347.276 128.018 C 347.053 128.778,346.118 131.830,345.199 134.800 C 344.279 137.770,343.294 141.010,343.009 142.000 C 342.724 142.990,341.641 146.500,340.603 149.800 C 338.514 156.440,335.812 165.221,335.004 168.000 C 334.716 168.990,333.638 172.500,332.610 175.800 C 329.746 184.987,327.582 192.011,327.004 194.000 C 326.716 194.990,325.638 198.500,324.610 201.800 C 323.581 205.100,322.048 210.050,321.203 212.800 C 320.358 215.550,318.557 221.400,317.200 225.800 C 315.843 230.200,314.570 234.340,314.370 235.000 C 313.684 237.262,311.119 240.113,308.617 241.393 L 306.257 242.600 228.728 242.704 C 186.088 242.761,151.201 242.941,151.202 243.104 C 151.202 243.267,152.597 247.090,154.302 251.600 L 157.400 259.800 224.400 260.007 L 291.400 260.214 294.514 261.094 C 318.689 267.927,328.620 295.524,314.200 315.800 C 299.311 336.734,267.003 334.089,255.607 311.003 C 251.727 303.142,250.635 292.704,252.993 286.019 C 253.293 285.168,253.433 284.366,253.303 284.236 C 253.083 284.016,182.394 283.880,182.405 284.100 C 182.408 284.155,182.766 285.910,183.200 288.000 C 189.522 318.431,155.814 341.498,130.200 324.269 C 109.663 310.455,110.058 278.780,130.932 265.611 C 132.827 264.416,133.612 263.691,133.493 263.244 C 133.399 262.890,121.022 230.020,105.990 190.200 C 90.957 150.380,76.657 112.490,74.212 106.000 L 69.767 94.200 52.983 94.000 C 36.521 93.804,36.165 93.783,34.371 92.889 C 24.844 88.146,25.576 74.557,35.553 70.946 C 38.409 69.912,80.995 70.383,83.027 71.471 M226.725 73.947 C 223.650 74.670,222.695 77.155,222.699 84.430 C 222.702 92.251,223.879 94.191,228.600 94.157 C 232.893 94.127,234.157 92.455,234.627 86.190 C 235.351 76.537,232.763 72.528,226.725 73.947 M267.855 77.569 C 267.266 78.653,266.562 79.619,266.292 79.716 C 266.021 79.813,268.590 79.805,272.000 79.699 C 278.901 79.483,279.134 79.406,278.230 77.658 C 277.318 75.894,276.498 75.600,272.490 75.600 L 268.927 75.600 267.855 77.569 M270.000 89.091 C 265.647 89.883,267.148 94.002,271.789 93.998 C 276.412 93.993,278.800 92.695,278.800 90.184 L 278.800 88.800 274.900 88.854 C 272.755 88.884,270.550 88.991,270.000 89.091 M305.989 112.300 C 305.995 112.355,304.451 112.400,302.557 112.400 C 299.434 112.400,299.141 112.335,299.405 111.700 C 300.039 110.175,300.886 107.338,301.040 106.223 C 301.367 103.853,302.086 104.355,304.059 108.333 C 305.114 110.460,305.983 112.245,305.989 112.300 M212.634 109.300 C 213.289 110.015,214.162 111.005,214.574 111.500 L 215.324 112.400 211.290 112.400 L 207.256 112.400 208.304 110.500 C 209.949 107.518,210.789 107.286,212.634 109.300 M257.392 111.241 L 258.585 112.400 254.854 112.400 L 251.124 112.400 252.813 110.989 C 254.747 109.373,255.516 109.416,257.392 111.241 M111.438 137.139 C 111.321 137.327,111.593 138.453,112.043 139.641 C 112.492 140.828,113.005 142.250,113.183 142.800 C 113.360 143.350,113.692 144.250,113.919 144.800 C 114.147 145.350,115.173 148.050,116.200 150.800 C 117.227 153.550,118.487 156.880,119.002 158.200 C 119.977 160.704,122.512 167.479,123.472 170.148 C 123.779 171.000,124.297 172.215,124.625 172.848 L 125.221 174.000 152.810 174.000 L 180.400 174.000 180.398 172.900 C 180.396 172.295,180.140 168.740,179.827 165.000 C 179.514 161.260,178.965 154.060,178.605 149.000 C 178.246 143.940,177.828 139.170,177.676 138.400 L 177.400 137.000 144.525 136.898 C 126.444 136.841,111.555 136.950,111.438 137.139 M189.762 137.106 C 189.444 137.319,189.461 139.281,189.823 144.200 C 190.097 147.940,190.627 155.140,190.999 160.200 C 191.372 165.260,191.749 169.475,191.838 169.567 C 192.085 169.821,191.987 166.312,191.605 161.200 C 191.416 158.670,190.969 152.649,190.612 147.821 C 190.255 142.993,189.926 138.673,189.881 138.221 C 189.800 137.402,189.860 137.400,217.800 137.196 L 245.800 136.992 218.000 136.902 C 202.710 136.853,190.003 136.944,189.762 137.106 M258.237 137.140 C 257.996 137.530,257.494 143.008,256.600 155.000 C 256.256 159.620,255.800 165.290,255.586 167.600 C 255.373 169.910,255.198 172.295,255.199 172.900 L 255.200 174.000 281.776 174.000 C 298.551 174.000,308.441 173.857,308.593 173.611 C 308.810 173.260,311.707 164.057,313.004 159.600 C 313.507 157.869,315.091 152.712,318.201 142.674 C 319.006 140.074,319.566 137.689,319.445 137.374 C 319.194 136.719,258.640 136.487,258.237 137.140 M177.200 138.029 C 177.200 138.485,177.469 142.130,177.798 146.129 C 178.979 160.495,179.571 168.244,179.685 170.800 L 179.800 173.400 152.599 173.503 L 125.398 173.605 124.881 172.438 C 124.597 171.797,124.020 170.310,123.599 169.136 C 123.178 167.961,122.453 166.010,121.987 164.800 C 121.521 163.590,120.987 162.150,120.800 161.600 C 120.613 161.050,120.072 159.610,119.599 158.400 C 119.125 157.190,118.368 155.120,117.916 153.800 C 117.465 152.480,116.939 151.229,116.748 151.020 C 116.556 150.811,116.400 150.388,116.400 150.080 C 116.400 149.773,116.155 148.954,115.856 148.260 C 114.727 145.644,114.296 144.570,113.983 143.600 C 113.805 143.050,113.286 141.613,112.830 140.406 C 112.373 139.199,112.000 137.984,112.000 137.706 C 112.000 137.302,118.593 137.200,144.600 137.200 L 177.200 137.200 177.200 138.029 M245.845 139.100 C 245.718 140.145,245.424 143.520,245.191 146.600 C 244.959 149.680,244.597 154.180,244.387 156.600 C 244.177 159.020,243.814 163.700,243.580 167.000 C 243.346 170.300,243.019 173.136,242.854 173.303 C 242.689 173.470,231.314 173.560,217.577 173.503 L 192.600 173.400 192.360 171.600 L 192.120 169.800 192.060 171.900 L 192.000 174.000 217.576 174.000 C 233.843 174.000,243.241 173.857,243.395 173.608 C 243.627 173.232,244.091 167.769,245.397 150.000 C 245.729 145.490,246.113 140.765,246.252 139.500 C 246.390 138.235,246.407 137.200,246.289 137.200 C 246.171 137.200,245.971 138.055,245.845 139.100 M319.200 137.424 C 319.200 137.717,315.785 148.998,313.395 156.600 C 312.358 159.900,311.276 163.410,310.990 164.400 C 309.606 169.206,308.361 172.999,308.073 173.287 C 307.898 173.462,296.064 173.560,281.777 173.503 L 255.800 173.400 255.861 171.600 C 255.919 169.893,256.297 164.851,257.210 153.600 C 257.433 150.850,257.787 146.207,257.995 143.283 C 258.204 140.358,258.481 137.793,258.611 137.583 C 258.862 137.176,319.200 137.018,319.200 137.424 M130.080 186.103 C 129.780 186.466,130.090 187.689,131.191 190.475 C 132.031 192.603,133.090 195.392,133.543 196.672 C 133.997 197.952,134.922 200.440,135.599 202.200 C 136.276 203.960,137.261 206.570,137.788 208.000 C 140.016 214.044,141.698 218.233,142.084 218.700 C 142.552 219.265,182.598 219.443,183.478 218.884 C 183.844 218.651,183.729 215.742,182.982 206.390 C 182.447 199.686,181.893 192.490,181.751 190.400 C 181.608 188.310,181.314 186.375,181.097 186.100 C 180.518 185.367,130.689 185.370,130.080 186.103 M193.623 185.975 C 193.123 186.293,193.143 187.597,193.772 195.871 C 194.787 209.207,195.215 212.899,194.969 206.200 C 194.865 203.340,194.616 199.380,194.418 197.400 C 194.219 195.420,193.956 192.135,193.833 190.100 L 193.609 186.400 217.804 186.400 C 236.897 186.400,241.999 186.505,241.994 186.900 C 241.991 187.175,241.713 191.000,241.376 195.400 C 240.586 205.724,239.626 218.172,239.612 218.300 C 239.605 218.355,229.817 218.400,217.861 218.400 L 196.121 218.400 195.691 214.900 L 195.260 211.400 195.415 214.967 C 195.516 217.292,195.750 218.648,196.085 218.861 C 196.732 219.271,238.829 219.296,239.473 218.887 C 239.739 218.718,240.127 216.748,240.359 214.393 C 241.136 206.516,242.019 194.205,242.110 190.000 L 242.200 185.800 218.200 185.704 C 204.164 185.648,193.961 185.761,193.623 185.975 M254.480 186.080 C 254.216 186.344,254.000 187.247,254.000 188.087 C 254.000 188.927,253.724 192.986,253.387 197.107 C 253.050 201.228,252.516 207.743,252.201 211.585 C 251.752 217.052,251.733 218.637,252.114 218.879 C 252.682 219.240,293.231 219.317,294.164 218.958 C 294.510 218.826,295.167 217.521,295.625 216.058 C 303.153 191.974,304.806 186.250,304.319 185.941 C 303.437 185.382,255.044 185.516,254.480 186.080 M180.947 187.500 C 181.062 188.105,181.354 191.480,181.596 195.000 C 181.837 198.520,182.204 203.110,182.411 205.200 C 182.619 207.290,182.908 211.115,183.053 213.700 L 183.317 218.400 162.838 218.400 L 142.359 218.400 141.762 216.900 C 141.433 216.075,141.014 215.040,140.830 214.600 C 140.646 214.160,140.225 213.080,139.893 212.200 C 139.561 211.320,139.013 209.880,138.675 209.000 C 138.336 208.120,136.964 204.430,135.625 200.800 C 134.286 197.170,133.013 193.887,132.796 193.505 C 132.578 193.123,132.400 192.611,132.400 192.366 C 132.400 192.121,132.155 191.354,131.856 190.660 C 130.775 188.154,130.400 187.155,130.400 186.781 C 130.400 186.544,139.885 186.400,155.568 186.400 L 180.736 186.400 180.947 187.500 M303.997 186.900 C 303.995 187.175,303.625 188.570,303.175 190.000 C 302.257 192.914,298.220 206.024,297.386 208.800 C 297.088 209.790,296.331 212.310,295.703 214.400 L 294.560 218.200 273.432 218.304 L 252.304 218.407 252.526 214.704 C 252.648 212.667,253.031 207.400,253.378 203.000 C 253.725 198.600,254.112 193.290,254.237 191.200 C 254.362 189.110,254.535 187.175,254.620 186.900 C 254.847 186.167,304.001 186.167,303.997 186.900 M144.400 285.213 C 135.961 289.810,136.511 301.815,145.333 305.576 C 154.520 309.492,163.731 299.384,159.363 290.179 C 156.758 284.690,149.676 282.339,144.400 285.213 M281.683 285.034 C 271.045 290.335,274.639 306.400,286.463 306.400 C 291.352 306.400,297.237 301.474,297.191 297.421 C 297.185 296.970,296.744 297.662,296.211 298.960 C 291.671 310.002,275.871 307.083,275.856 295.200 C 275.841 283.135,293.158 280.354,296.434 291.896 C 296.732 292.943,297.036 293.498,297.111 293.129 C 297.186 292.760,296.855 291.547,296.376 290.433 C 294.012 284.937,287.027 282.370,281.683 285.034 M154.238 285.517 C 164.125 290.565,160.463 305.843,149.381 305.784 C 137.795 305.722,134.791 289.283,145.601 285.105 C 147.982 284.185,152.006 284.377,154.238 285.517 " stroke="none" fill="#929494" fill-rule="evenodd"></path></g></svg>